<svg id="Capa_1" enable-background="new 0 0 512 512" height="512" viewBox="0 0 512 512" width="512" xmlns="http://www.w3.org/2000/svg"><g><g><circle cx="224.318" cy="287.682" fill="#dd636e" r="224.317"/><path d="m238.719 511.549c-4.761.291-9.566.451-14.4.451-123.895 0-224.319-100.438-224.319-224.318s100.424-224.319 224.319-224.319c4.834 0 9.639.16 14.4.451-117.139 7.485-209.831 104.851-209.831 223.868s92.692 216.383 209.831 223.867z" fill="#cb5769"/><circle cx="224.318" cy="287.682" fill="#d3effb" r="171.444"/><path d="m254.274 456.641c-9.493 1.645-19.264 2.49-29.223 2.49-94.687 0-171.449-76.763-171.449-171.449s76.763-171.449 171.449-171.449c9.959 0 19.729.844 29.223 2.49-80.752 13.862-142.212 84.232-142.212 168.959s61.46 155.098 142.212 168.959z" fill="#9dc6fb"/><path d="m224.318 309.522h-79.652c-12.062 0-21.841-9.779-21.841-21.841s9.779-21.841 21.841-21.841h79.652c12.062 0 21.841 9.779 21.841 21.841-.001 12.063-9.779 21.841-21.841 21.841z" fill="#365e7d"/><path d="m224.318 309.522c-12.062 0-21.841-9.779-21.841-21.841v-55.768c0-12.062 9.779-21.841 21.841-21.841s21.841 9.779 21.841 21.841v55.768c-.001 12.063-9.779 21.841-21.841 21.841z" fill="#2b4d66"/><g fill="#365e7d"><g><path d="m224.318 164.63c-4.204 0-7.611-3.408-7.611-7.611v-34.348c0-4.204 3.408-7.611 7.611-7.611 4.204 0 7.611 3.408 7.611 7.611v34.348c0 4.204-3.408 7.611-7.611 7.611z"/><path d="m224.318 460.304c-4.204 0-7.611-3.408-7.611-7.612v-34.347c0-4.204 3.408-7.612 7.611-7.612 4.204 0 7.611 3.408 7.611 7.612v34.347c0 4.204-3.408 7.612-7.611 7.612z"/></g><g><path d="m389.329 295.293h-34.348c-4.204 0-7.612-3.408-7.612-7.612s3.408-7.611 7.612-7.611h34.348c4.204 0 7.611 3.408 7.611 7.611 0 4.205-3.408 7.612-7.611 7.612z"/><path d="m93.655 295.293h-34.348c-4.204 0-7.611-3.408-7.611-7.612s3.408-7.611 7.611-7.611h34.348c4.204 0 7.611 3.408 7.611 7.611.001 4.205-3.407 7.612-7.611 7.612z"/></g><g><path d="m349.671 222.926c-2.63 0-5.189-1.365-6.599-3.807-2.102-3.641-.854-8.296 2.786-10.397l17.558-10.137c3.641-2.103 8.295-.855 10.397 2.786s.854 8.296-2.786 10.397l-17.558 10.137c-1.198.692-2.507 1.021-3.798 1.021z"/><path d="m81.421 377.8c-2.63 0-5.189-1.365-6.599-3.807-2.102-3.64-.855-8.296 2.786-10.397l17.558-10.137c3.64-2.102 8.296-.855 10.397 2.786 2.102 3.64.855 8.295-2.786 10.397l-17.557 10.137c-1.199.692-2.507 1.021-3.799 1.021z"/></g><g><path d="m296.679 169.949c-1.291 0-2.6-.329-3.799-1.021-3.64-2.102-4.888-6.757-2.786-10.397l10.137-17.558c2.102-3.64 6.757-4.889 10.397-2.786 3.64 2.102 4.888 6.757 2.786 10.397l-10.137 17.558c-1.409 2.441-3.967 3.807-6.598 3.807z"/><path d="m141.806 438.198c-1.291 0-2.6-.329-3.799-1.021-3.64-2.102-4.888-6.757-2.786-10.397l10.137-17.558c2.102-3.64 6.757-4.888 10.397-2.786s4.888 6.757 2.786 10.397l-10.137 17.558c-1.409 2.442-3.968 3.807-6.598 3.807z"/></g><g><path d="m151.956 169.949c-2.63 0-5.189-1.365-6.599-3.807l-10.137-17.558c-2.102-3.641-.854-8.296 2.786-10.397 3.64-2.102 8.296-.855 10.397 2.786l10.137 17.558c2.102 3.641.854 8.296-2.786 10.397-1.197.692-2.506 1.021-3.798 1.021z"/><path d="m306.83 438.198c-2.63 0-5.189-1.365-6.599-3.807l-10.137-17.558c-2.102-3.641-.854-8.296 2.786-10.397 3.641-2.102 8.295-.855 10.397 2.786l10.137 17.558c2.102 3.641.854 8.296-2.786 10.397-1.198.692-2.507 1.021-3.798 1.021z"/></g><g><path d="m98.965 222.926c-1.291 0-2.6-.329-3.799-1.021l-17.558-10.137c-3.64-2.102-4.888-6.757-2.786-10.397s6.757-4.889 10.397-2.786l17.558 10.137c3.64 2.102 4.888 6.757 2.786 10.397-1.409 2.441-3.967 3.807-6.598 3.807z"/><path d="m367.215 377.8c-1.291 0-2.6-.329-3.799-1.021l-17.558-10.137c-3.641-2.102-4.888-6.757-2.786-10.397 2.101-3.641 6.756-4.888 10.397-2.786l17.558 10.137c3.641 2.102 4.888 6.757 2.786 10.397-1.41 2.442-3.968 3.807-6.598 3.807z"/></g></g><path d="m224.318 469.275c-100.13 0-181.592-81.462-181.592-181.593s81.462-181.593 181.592-181.593 181.592 81.463 181.592 181.593-81.462 181.593-181.592 181.593zm0-342.888c-88.938 0-161.295 72.357-161.295 161.295s72.357 161.295 161.295 161.295c88.939 0 161.295-72.357 161.295-161.295s-72.357-161.295-161.295-161.295z" fill="#cb5769"/></g><g><circle cx="406.437" cy="105.562" fill="#95d6a4" r="105.562"/><path d="m418.363 210.464c-3.908.444-7.893.666-11.92.666-58.304 0-105.567-47.263-105.567-105.567 0-58.296 47.263-105.559 105.567-105.559 4.028 0 8.012.222 11.92.666-52.69 5.922-93.647 50.625-93.647 104.893 0 54.276 40.957 98.979 93.647 104.901z" fill="#78c2a4"/><path d="m375.485 167.364-33.004-55.211c-3.18-5.32-1.446-12.211 3.875-15.391l16.65-9.953c5.32-3.18 12.211-1.446 15.391 3.875l16.748 28.017 34.4-69.399c2.753-5.553 9.486-7.824 15.04-5.071l17.379 8.615c5.553 2.753 7.824 9.486 5.071 15.04l-48.471 97.785c-1.824 3.679-5.511 6.069-9.614 6.23l-23.39.92c-4.104.16-7.968-1.933-10.075-5.457z" fill="#f9f6f9"/></g></g></svg>